<svg width="375" height="649" viewBox="0 0 375 649" fill="none" xmlns="http://www.w3.org/2000/svg">
<g clip-path="url(#clip0_2_3)">
<rect width="375" height="649" fill="#2D2E32"/>
<path d="M46.6965 24C49.1965 56 6.19651 101 65.6965 126C125.197 151 182.697 130.5 171.197 174.5" stroke="#00FF85" stroke-width="5"/>
<path d="M24.4688 612.113H18.3812L16.5 606.531L14.6194 612.113H8.53125L13.4562 615.562L11.575 621.143L16.5 617.694L21.425 621.143L19.5438 615.562L24.4688 612.113Z" fill="#00FF85"/>
<path d="M20.2809 611.404L21.3238 608.353L18.5509 610.268L18.939 611.404H20.2809Z" fill="#00FF85"/>
<path d="M15.4142 619.291L16.5001 622.469L17.5865 619.291L16.5001 618.54L15.4142 619.291Z" fill="#00FF85"/>
<path d="M21.4618 615.113L20.4458 615.815L20.8772 617.077H24.3048L21.4618 615.113Z" fill="#00FF85"/>
<path d="M14.4486 610.268L11.6763 608.353L12.7191 611.404H14.0611L14.4486 610.268Z" fill="#00FF85"/>
<path d="M11.5382 615.113L8.69519 617.077H12.1225L12.5542 615.815L11.5382 615.113Z" fill="#00FF85"/>
<path d="M342.469 32.1126H336.381L334.5 26.5312L332.619 32.1126H326.531L331.456 35.5625L329.575 41.1433L334.5 37.6936L339.425 41.1433L337.544 35.5625L342.469 32.1126Z" fill="#00FF85"/>
<path d="M338.281 31.4039L339.324 28.3527L336.551 30.2681L336.939 31.4039H338.281Z" fill="#00FF85"/>
<path d="M333.414 39.2905L334.5 42.4687L335.586 39.2905L334.5 38.5404L333.414 39.2905Z" fill="#00FF85"/>
<path d="M339.462 35.1128L338.446 35.8146L338.877 37.0768H342.305L339.462 35.1128Z" fill="#00FF85"/>
<path d="M332.449 30.2681L329.676 28.3527L330.719 31.4039H332.061L332.449 30.2681Z" fill="#00FF85"/>
<path d="M329.538 35.1128L326.695 37.0768H330.122L330.554 35.8146L329.538 35.1128Z" fill="#00FF85"/>
<path d="M342.478 252.647C342.497 252.584 342.504 252.518 342.498 252.453C342.492 252.387 342.473 252.324 342.442 252.266C342.411 252.208 342.369 252.156 342.319 252.115C342.268 252.073 342.21 252.041 342.147 252.022C342.084 252.003 342.018 251.996 341.953 252.002C341.887 252.008 341.824 252.027 341.766 252.058C341.708 252.089 341.656 252.131 341.615 252.181C341.573 252.232 341.541 252.29 341.522 252.353L337.522 265.353C337.483 265.48 337.496 265.617 337.558 265.734C337.62 265.851 337.726 265.939 337.853 265.978C337.98 266.017 338.117 266.004 338.234 265.942C338.351 265.88 338.439 265.774 338.478 265.647L342.478 252.647ZM336.854 255.146C336.901 255.192 336.937 255.248 336.963 255.308C336.988 255.369 337.001 255.434 337.001 255.5C337.001 255.566 336.988 255.631 336.963 255.692C336.937 255.752 336.901 255.808 336.854 255.854L333.707 259L336.854 262.146C336.948 262.24 337.001 262.367 337.001 262.5C337.001 262.633 336.948 262.76 336.854 262.854C336.76 262.948 336.633 263.001 336.5 263.001C336.367 263.001 336.24 262.948 336.146 262.854L332.646 259.354C332.599 259.308 332.562 259.252 332.537 259.192C332.512 259.131 332.499 259.066 332.499 259C332.499 258.934 332.512 258.869 332.537 258.808C332.562 258.748 332.599 258.692 332.646 258.646L336.146 255.146C336.192 255.099 336.248 255.062 336.308 255.037C336.369 255.012 336.434 254.999 336.5 254.999C336.566 254.999 336.631 255.012 336.692 255.037C336.752 255.062 336.808 255.099 336.854 255.146ZM343.146 255.146C343.099 255.192 343.062 255.248 343.037 255.308C343.012 255.369 342.999 255.434 342.999 255.5C342.999 255.566 343.012 255.631 343.037 255.692C343.062 255.752 343.099 255.808 343.146 255.854L346.293 259L343.146 262.146C343.099 262.192 343.063 262.248 343.037 262.308C343.012 262.369 342.999 262.434 342.999 262.5C342.999 262.566 343.012 262.631 343.037 262.692C343.063 262.752 343.099 262.807 343.146 262.854C343.192 262.9 343.248 262.937 343.308 262.962C343.369 262.988 343.434 263.001 343.5 263.001C343.566 263.001 343.631 262.988 343.692 262.962C343.752 262.937 343.807 262.9 343.854 262.854L347.354 259.354C347.401 259.308 347.437 259.252 347.463 259.192C347.488 259.131 347.501 259.066 347.501 259C347.501 258.934 347.488 258.869 347.463 258.808C347.437 258.748 347.401 258.692 347.354 258.646L343.854 255.146C343.808 255.099 343.752 255.062 343.692 255.037C343.631 255.012 343.566 254.999 343.5 254.999C343.434 254.999 343.369 255.012 343.308 255.037C343.248 255.062 343.192 255.099 343.146 255.146Z" fill="#00FF85" fill-opacity="0.37"/>
<path d="M45.9789 367.647C45.9982 367.584 46.0049 367.518 45.9988 367.453C45.9926 367.388 45.9736 367.324 45.9428 367.266C45.9121 367.208 45.8702 367.157 45.8196 367.115C45.769 367.073 45.7107 367.041 45.6479 367.022C45.5851 367.003 45.5192 366.996 45.4538 367.002C45.3884 367.008 45.3249 367.027 45.2668 367.058C45.2088 367.089 45.1574 367.131 45.1155 367.181C45.0737 367.232 45.0422 367.29 45.0229 367.353L41.0229 380.353C40.9839 380.48 40.9969 380.617 41.059 380.734C41.121 380.851 41.2271 380.939 41.3539 380.978C41.4807 381.017 41.6177 381.004 41.7349 380.942C41.8522 380.88 41.9399 380.774 41.9789 380.647L45.9789 367.647ZM40.3549 370.146C40.4015 370.193 40.4384 370.248 40.4636 370.308C40.4888 370.369 40.5018 370.434 40.5018 370.5C40.5018 370.566 40.4888 370.631 40.4636 370.692C40.4384 370.752 40.4015 370.808 40.3549 370.854L37.2079 374L40.3549 377.146C40.4488 377.24 40.5015 377.367 40.5015 377.5C40.5015 377.633 40.4488 377.76 40.3549 377.854C40.261 377.948 40.1337 378.001 40.0009 378.001C39.8681 378.001 39.7408 377.948 39.6469 377.854L36.1469 374.354C36.1003 374.308 36.0634 374.252 36.0382 374.192C36.013 374.131 36 374.066 36 374C36 373.934 36.013 373.869 36.0382 373.808C36.0634 373.748 36.1003 373.693 36.1469 373.646L39.6469 370.146C39.6933 370.1 39.7485 370.063 39.8093 370.037C39.87 370.012 39.9351 369.999 40.0009 369.999C40.0667 369.999 40.1318 370.012 40.1925 370.037C40.2533 370.063 40.3084 370.1 40.3549 370.146ZM46.6469 370.146C46.6003 370.193 46.5634 370.248 46.5382 370.308C46.513 370.369 46.5 370.434 46.5 370.5C46.5 370.566 46.513 370.631 46.5382 370.692C46.5634 370.752 46.6003 370.808 46.6469 370.854L49.7939 374L46.6469 377.146C46.6004 377.193 46.5635 377.248 46.5384 377.309C46.5132 377.369 46.5003 377.434 46.5003 377.5C46.5003 377.566 46.5132 377.631 46.5384 377.692C46.5635 377.752 46.6004 377.808 46.6469 377.854C46.6934 377.901 46.7486 377.937 46.8093 377.963C46.87 377.988 46.9352 378.001 47.0009 378.001C47.0666 378.001 47.1317 377.988 47.1925 377.963C47.2532 377.937 47.3084 377.901 47.3549 377.854L50.8549 374.354C50.9015 374.308 50.9384 374.252 50.9636 374.192C50.9888 374.131 51.0018 374.066 51.0018 374C51.0018 373.934 50.9888 373.869 50.9636 373.808C50.9384 373.748 50.9015 373.693 50.8549 373.646L47.3549 370.146C47.3084 370.1 47.2533 370.063 47.1925 370.037C47.1318 370.012 47.0667 369.999 47.0009 369.999C46.9351 369.999 46.87 370.012 46.8093 370.037C46.7485 370.063 46.6933 370.1 46.6469 370.146Z" fill="#00FF85" fill-opacity="0.37"/>
<path d="M198.979 591.647C198.998 591.584 199.005 591.518 198.999 591.453C198.993 591.388 198.974 591.324 198.943 591.266C198.912 591.208 198.87 591.157 198.82 591.115C198.769 591.073 198.711 591.041 198.648 591.022C198.585 591.003 198.519 590.996 198.454 591.002C198.388 591.008 198.325 591.027 198.267 591.058C198.209 591.089 198.157 591.131 198.116 591.181C198.074 591.232 198.042 591.29 198.023 591.353L194.023 604.353C193.984 604.48 193.997 604.617 194.059 604.734C194.121 604.851 194.227 604.939 194.354 604.978C194.481 605.017 194.618 605.004 194.735 604.942C194.852 604.88 194.94 604.774 194.979 604.647L198.979 591.647ZM193.355 594.146C193.401 594.193 193.438 594.248 193.464 594.308C193.489 594.369 193.502 594.434 193.502 594.5C193.502 594.566 193.489 594.631 193.464 594.692C193.438 594.752 193.401 594.808 193.355 594.854L190.208 598L193.355 601.146C193.449 601.24 193.502 601.367 193.502 601.5C193.502 601.633 193.449 601.76 193.355 601.854C193.261 601.948 193.134 602.001 193.001 602.001C192.868 602.001 192.741 601.948 192.647 601.854L189.147 598.354C189.1 598.308 189.063 598.252 189.038 598.192C189.013 598.131 189 598.066 189 598C189 597.934 189.013 597.869 189.038 597.808C189.063 597.748 189.1 597.693 189.147 597.646L192.647 594.146C192.693 594.1 192.749 594.063 192.809 594.037C192.87 594.012 192.935 593.999 193.001 593.999C193.067 593.999 193.132 594.012 193.193 594.037C193.253 594.063 193.308 594.1 193.355 594.146ZM199.647 594.146C199.6 594.193 199.563 594.248 199.538 594.308C199.513 594.369 199.5 594.434 199.5 594.5C199.5 594.566 199.513 594.631 199.538 594.692C199.563 594.752 199.6 594.808 199.647 594.854L202.794 598L199.647 601.146C199.6 601.193 199.564 601.248 199.538 601.309C199.513 601.369 199.5 601.434 199.5 601.5C199.5 601.566 199.513 601.631 199.538 601.692C199.564 601.752 199.6 601.808 199.647 601.854C199.693 601.901 199.749 601.937 199.809 601.963C199.87 601.988 199.935 602.001 200.001 602.001C200.067 602.001 200.132 601.988 200.192 601.963C200.253 601.937 200.308 601.901 200.355 601.854L203.855 598.354C203.901 598.308 203.938 598.252 203.964 598.192C203.989 598.131 204.002 598.066 204.002 598C204.002 597.934 203.989 597.869 203.964 597.808C203.938 597.748 203.901 597.693 203.855 597.646L200.355 594.146C200.308 594.1 200.253 594.063 200.193 594.037C200.132 594.012 200.067 593.999 200.001 593.999C199.935 593.999 199.87 594.012 199.809 594.037C199.749 594.063 199.693 594.1 199.647 594.146Z" fill="#00FF85" fill-opacity="0.37"/>
<path d="M97.9789 39.6471C97.9982 39.5843 98.0049 39.5184 97.9988 39.453C97.9926 39.3876 97.9736 39.3241 97.9428 39.266C97.9121 39.208 97.8702 39.1566 97.8196 39.1147C97.769 39.0729 97.7107 39.0414 97.6479 39.0221C97.5851 39.0028 97.5192 38.996 97.4538 39.0022C97.3884 39.0084 97.3249 39.0274 97.2668 39.0582C97.2088 39.0889 97.1574 39.1308 97.1155 39.1814C97.0737 39.232 97.0422 39.2903 97.0229 39.3531L93.0229 52.3531C92.9839 52.4799 92.9969 52.6169 93.059 52.7341C93.121 52.8514 93.2271 52.9391 93.3539 52.9781C93.4807 53.0171 93.6177 53.0041 93.7349 52.942C93.8522 52.88 93.9399 52.7739 93.9789 52.6471L97.9789 39.6471ZM92.3549 42.1461C92.4015 42.1925 92.4384 42.2477 92.4636 42.3085C92.4888 42.3692 92.5018 42.4343 92.5018 42.5001C92.5018 42.5659 92.4888 42.631 92.4636 42.6917C92.4384 42.7525 92.4015 42.8076 92.3549 42.8541L89.2079 46.0001L92.3549 49.1461C92.4488 49.24 92.5015 49.3673 92.5015 49.5001C92.5015 49.6329 92.4488 49.7602 92.3549 49.8541C92.261 49.948 92.1337 50.0007 92.0009 50.0007C91.8681 50.0007 91.7408 49.948 91.6469 49.8541L88.1469 46.3541C88.1003 46.3076 88.0634 46.2525 88.0382 46.1917C88.013 46.131 88 46.0659 88 46.0001C88 45.9343 88.013 45.8692 88.0382 45.8085C88.0634 45.7477 88.1003 45.6925 88.1469 45.6461L91.6469 42.1461C91.6933 42.0995 91.7485 42.0626 91.8093 42.0374C91.87 42.0122 91.9351 41.9992 92.0009 41.9992C92.0667 41.9992 92.1318 42.0122 92.1925 42.0374C92.2533 42.0626 92.3084 42.0995 92.3549 42.1461ZM98.6469 42.1461C98.6003 42.1925 98.5634 42.2477 98.5382 42.3085C98.513 42.3692 98.5 42.4343 98.5 42.5001C98.5 42.5659 98.513 42.631 98.5382 42.6917C98.5634 42.7525 98.6003 42.8076 98.6469 42.8541L101.794 46.0001L98.6469 49.1461C98.6004 49.1926 98.5635 49.2478 98.5384 49.3085C98.5132 49.3692 98.5003 49.4344 98.5003 49.5001C98.5003 49.5658 98.5132 49.6309 98.5384 49.6917C98.5635 49.7524 98.6004 49.8076 98.6469 49.8541C98.6934 49.9006 98.7486 49.9375 98.8093 49.9626C98.87 49.9878 98.9352 50.0007 99.0009 50.0007C99.0666 50.0007 99.1317 49.9878 99.1925 49.9626C99.2532 49.9375 99.3084 49.9006 99.3549 49.8541L102.855 46.3541C102.901 46.3076 102.938 46.2525 102.964 46.1917C102.989 46.131 103.002 46.0659 103.002 46.0001C103.002 45.9343 102.989 45.8692 102.964 45.8085C102.938 45.7477 102.901 45.6925 102.855 45.6461L99.3549 42.1461C99.3084 42.0995 99.2533 42.0626 99.1925 42.0374C99.1318 42.0122 99.0667 41.9992 99.0009 41.9992C98.9351 41.9992 98.87 42.0122 98.8093 42.0374C98.7485 42.0626 98.6933 42.0995 98.6469 42.1461Z" fill="#00FF85" fill-opacity="0.37"/>
</g>
<defs>
<clipPath id="clip0_2_3">
<rect width="375" height="649" fill="white"/>
</clipPath>
</defs>
</svg>
